<?xml version="1.0" standalone="no"?>
<!DOCTYPE svg PUBLIC "-//W3C//DTD SVG 20010904//EN"
 "http://www.w3.org/TR/2001/REC-SVG-20010904/DTD/svg10.dtd">
<svg version="1.0" xmlns="http://www.w3.org/2000/svg"
 width="500.000000pt" height="344.000000pt" viewBox="0 0 500.000000 344.000000"
 preserveAspectRatio="xMidYMid meet">

<g transform="translate(0.000000,344.000000) scale(0.100000,-0.100000)"
fill="#000000" stroke="none">
<path d="M1494 3062 c-33 -26 -199 -154 -370 -284 -170 -130 -333 -255 -361
-278 l-53 -41 0 96 0 95 -45 0 -45 0 0 -290 0 -290 45 0 44 0 3 119 3 120 60
-45 c33 -25 69 -53 80 -62 11 -10 114 -89 229 -177 115 -88 235 -180 267 -205
33 -25 58 -49 57 -55 -1 -5 -158 -129 -348 -274 l-345 -263 -3 121 -3 121 -44
0 -45 0 0 -165 0 -165 475 0 475 0 0 40 0 40 -346 0 -346 0 29 24 c27 22 226
176 513 395 74 57 141 109 148 116 14 13 22 6 -530 433 -82 63 -148 116 -148
118 0 2 232 4 515 4 l515 0 0 -545 0 -545 -90 0 -90 0 0 -40 0 -40 235 0 235
0 0 40 0 40 -90 0 -90 0 0 502 c0 280 4 498 9 493 7 -8 290 -418 598 -866 40
-59 73 -110 73 -113 0 -3 -27 -6 -60 -6 l-60 0 0 -45 0 -45 712 -2 711 -3 -59
-44 c-32 -25 -135 -104 -229 -176 -93 -72 -224 -173 -290 -224 l-120 -92 -5
78 -5 78 -35 0 -35 0 -3 -168 c-2 -108 1 -168 7 -165 9 3 361 270 734 558
l117 90 0 -90 0 -90 45 0 45 0 0 290 0 290 -45 0 -45 0 0 -120 c0 -66 -3 -120
-6 -120 -3 0 -27 17 -53 38 -25 21 -131 103 -236 182 -104 79 -192 147 -195
150 -3 3 -52 42 -109 85 l-104 78 29 26 c17 14 104 82 193 151 90 69 234 180
320 246 l156 122 3 -119 3 -119 44 0 45 0 0 165 0 165 -475 0 -475 0 0 -45 0
-45 344 -2 345 -3 -202 -155 c-427 -329 -482 -372 -484 -384 -1 -6 93 -83 208
-171 247 -188 460 -353 474 -366 5 -5 -191 -9 -513 -9 l-522 0 0 545 0 545 90
0 90 0 0 45 0 45 -235 0 -235 0 0 -45 0 -45 95 0 95 0 0 -507 0 -506 -28 39
c-15 21 -72 104 -127 184 -104 153 -107 158 -368 537 -92 132 -167 244 -167
247 0 3 27 6 60 6 l60 0 0 45 0 45 -706 0 -705 0 73 58 c40 32 149 116 242
188 93 71 214 164 270 207 l101 77 3 -75 3 -75 44 0 45 0 0 165 c0 126 -3 165
-12 165 -7 -1 -40 -22 -74 -48z"/>
<path d="M2780 3027 l-41 -84 41 -81 c23 -45 45 -82 51 -82 5 0 27 37 50 82
l41 82 -41 83 c-22 46 -45 83 -51 83 -6 0 -28 -38 -50 -83z"/>
<path d="M1930 680 c-22 -44 -40 -85 -40 -91 0 -21 75 -169 84 -166 12 4 86
145 86 164 0 15 -77 173 -85 173 -3 0 -23 -36 -45 -80z"/>
</g>
</svg>
